# xmcd
#
# Track frame offsets:
#	150
#	14603
#	29753
#	42951
#	57310
#	70068
#	86461
#	101639
#	115542
#	130090
#	145056
#	160418
#	175028
#	188412
#	202575
#	216677
#	231785
#	247420
#	265136
#
# Disc length: 3739 seconds
#
# Revision: 1
# Processed by: cddbd v1.5.2PL0 Copyright (c) Steve Scherf et al.
# Submitted via: audiograbber 1.83.01
#
DISCID=0d0e9913
DTITLE=Various Artist - Promo Only Country August 2016
DYEAR=2016
DGENRE=Country
TTITLE0=Chrsi Young Feat. Vince Gill - Sober Saturday Night
TTITLE1=Thompson Square - You Make It All So Good
TTITLE2=Dierks Bentley Feat. Elie King - Different For Girls
TTITLE3=Old Dominion - Song For Another Time
TTITLE4=Gary Allan - Do You Wish It Was Me?
TTITLE5=Thomas Rhett - Vacation
TTITLE6=Farewell Angelina - Shotgun Summer
TTITLE7=Eli Young Band - Saltwater Gospel
TTITLE8=Stephanie Quayle - Drinking With Dolly
TTITLE9=Adely Stump - Don't Wanna Love Him
TTITLE10=Mickey Guyton - Heartbreak Song
TTITLE11=Dylan Scott - My Girl
TTITLE12=Runaway June - Lipstick
TTITLE13=Blake Shelton - She's Got A Way With Words
TTITLE14=Cassadee Pope - Summer
TTITLE15=Last Bandoleros - Where Do You Go?
TTITLE16=Maren Morris - 80's Mercedes
TTITLE17=Presley and Taylor - My Hometown
TTITLE18=Steve Moakler - Suitcase
EXTD=
EXTT0=
EXTT1=
EXTT2=
EXTT3=
EXTT4=
EXTT5=
EXTT6=
EXTT7=
EXTT8=
EXTT9=
EXTT10=
EXTT11=
EXTT12=
EXTT13=
EXTT14=
EXTT15=
EXTT16=
EXTT17=
EXTT18=
PLAYORDER=
